<?xml version="1.0" encoding="iso-8859-1"?>
<!-- Generator: Adobe Illustrator 17.1.0, SVG Export Plug-In . SVG Version: 6.00 Build 0)  -->
<!DOCTYPE svg PUBLIC "-//W3C//DTD SVG 1.1//EN" "http://www.w3.org/Graphics/SVG/1.1/DTD/svg11.dtd">
<svg xmlns="http://www.w3.org/2000/svg" xmlns:xlink="http://www.w3.org/1999/xlink" version="1.1" id="Capa_1" x="0px" y="0px" viewBox="0 0 434.491 434.491" style="enable-background:new 0 0 434.491 434.491;" xml:space="preserve" width="512px" height="512px">
<g>
	<path d="M242.359,300.43c-9.364,0-16.982,7.619-16.982,16.983c0,9.363,7.618,16.981,16.982,16.981   c9.364,0,16.982-7.618,16.982-16.981C259.341,308.049,251.723,300.43,242.359,300.43z" fill="#facf25"/>
	<path d="M304.412,300.43c-9.364,0-16.982,7.619-16.982,16.983c0,9.363,7.618,16.981,16.982,16.981   c9.364,0,16.983-7.618,16.983-16.981C321.395,308.049,313.776,300.43,304.412,300.43z" fill="#facf25"/>
	<path d="M366.465,300.43c-9.364,0-16.982,7.619-16.982,16.983c0,9.363,7.618,16.981,16.982,16.981   c9.364,0,16.982-7.618,16.982-16.981C383.447,308.049,375.829,300.43,366.465,300.43z" fill="#facf25"/>
	<path d="M71.027,256.594c-4.554-11.599-7.825-35.315-9.477-49.575l25.195-38.912c4.415,1.896,9.273,2.95,14.374,2.95   c8.956,0,17.165-3.243,23.527-8.61l86.835,60.064c0.953,0.659,1.932,1.197,2.932,1.621v3.133c0,15.068,12.259,27.327,27.327,27.327   h122.745c15.067,0,27.325-12.259,27.325-27.327V95.552c0-15.066-12.258-27.324-27.325-27.324H264.065   c-14.503,0-28.664,11.515-31.654,25.704l-13.354,48.751l-0.077,0.321c-2.436,11.931-4.428,31.273-4.556,43.921l-76.781-53.112   c-0.379-19.822-16.612-35.832-36.525-35.832c-20.149,0-36.542,16.391-36.542,36.538c0,3.131,0.397,6.17,1.141,9.072l-34.411,53.145   c-14.48,22.139-37.596,62.579-29.71,84.681c5.379,15.077,18.697,27.167,38.514,34.963c20.868,8.21,41.449,9.097,49.33,9.097   l0.441-0.001c10.659-0.042,14.729-3.92,16.265-7.166c1.33-2.809,1.861-7.455-3.188-13.669   C102.711,304.338,77.967,274.273,71.027,256.594z M273.012,149.848c1.216-2.88,1.239-6.06,0.063-8.955   c-1.176-2.896-3.409-5.159-6.288-6.374c-1.451-0.612-2.981-0.923-4.548-0.923c-4.715,0-8.946,2.807-10.778,7.149l-8.124,19.242   c-1.961-1.902-2.839-4.757-2.282-7.971l11.961-47.728l0.066-0.303c1.246-6.71,8.062-12.378,14.886-12.378h88.407   c6.476,0,11.745,5.269,11.745,11.745v47.331c0,6.477-5.269,11.745-11.745,11.745H267.7L273.012,149.848z M87.12,134.204   c0-7.72,6.28-14,14-14c7.72,0,14,6.28,14,14s-6.28,14-14,14C93.4,148.204,87.12,141.923,87.12,134.204z" fill="#facf25"/>
	<path d="M385.641,268.563h-162.3c-30.132,0-48.85,18.718-48.85,48.85s18.718,48.851,48.85,48.851h162.3   c30.132,0,48.85-18.719,48.85-48.851S415.773,268.563,385.641,268.563z M385.641,346.263h-162.3   c-19.143,0-28.85-9.707-28.85-28.851c0-19.144,9.707-28.85,28.85-28.85h162.3c19.144,0,28.85,9.706,28.85,28.85   C414.491,336.556,404.785,346.263,385.641,346.263z" fill="#facf25"/>
</g>
<g>
</g>
<g>
</g>
<g>
</g>
<g>
</g>
<g>
</g>
<g>
</g>
<g>
</g>
<g>
</g>
<g>
</g>
<g>
</g>
<g>
</g>
<g>
</g>
<g>
</g>
<g>
</g>
<g>
</g>
</svg>
