<?xml version="1.0"?>
<svg xmlns="http://www.w3.org/2000/svg" height="512px" viewBox="0 -4 488.55829 488" width="512px"><path d="m432.558594.277344h-240c-22.082032.027344-39.972656 17.921875-40 40v40h-24c-2.121094.003906-4.15625.84375-5.65625 2.347656l-6.742188 6.742188-23.304687-23.304688c-3.125-3.121094-8.1875-3.121094-11.3125 0l-79.199219 79.199219c-3.125 3.125-3.125 8.1875 0 11.3125l23.300781 23.304687-14.742187 14.746094c-1.5 1.5-2.34375 3.53125-2.34375 5.652344v224c.035156 30.914062 25.085937 55.964844 56 56h368c30.914062-.035156 55.964844-25.085938 56-56v-368c-.035156-30.910156-25.085938-55.964844-56-56zm-163.097656 80h-68.902344v-32h104.105468zm-100.902344-40c0-13.253906 10.746094-24 24-24h147.304687l-17.601562 16h-121.703125c-8.835938 0-16 7.164062-16 16v32h-16zm-149.25 110.640625 67.890625-67.886719 17.648437 17.648438-67.890625 67.886718zm453.25 273.359375c-.027344 22.082031-17.917969 39.976562-40 40h-368c-22.082032-.023438-39.972656-17.917969-40-40v-220.6875l107.3125-107.3125h140.6875c1.992187.003906 3.910156-.738282 5.382812-2.078125l85.710938-77.921875h68.90625c22.082031.027344 39.972656 17.921875 40 40zm0 0" fill="#FFDA44"/><path d="m406.214844 149.933594-11.3125-11.308594-45.65625 45.652344h-185.375l-45.65625-45.652344-11.3125 11.308594 45.65625 45.65625v185.378906l-45.65625 45.65625 11.3125 11.308594 45.65625-45.65625h185.375l45.65625 45.65625 11.3125-11.308594-45.65625-45.65625v-185.378906zm-61.65625 226.34375h-176v-176h176zm0 0" fill="#FFDA44"/><path d="m256.558594 352.277344c26.5-.023438 47.972656-21.5 48-48 0-24.199219-37.488282-71.671875-41.761719-77-1.566406-1.804688-3.84375-2.84375-6.238281-2.84375-2.394532 0-4.671875 1.039062-6.242188 2.84375-4.269531 5.328125-41.757812 52.800781-41.757812 77 .027344 26.5 21.5 47.976562 48 48zm0-106.917969c14.335937 19.144531 32 46.75 32 58.917969 0 17.675781-14.328125 32-32 32s-32-14.324219-32-32c0-12.167969 17.664062-39.773438 32-58.917969zm0 0" fill="#FFDA44"/></svg>
