<?xml version="1.0"?>
<svg xmlns="http://www.w3.org/2000/svg" height="512px" viewBox="0 0 511 511.99978" width="512px"><path d="m512.441406 150.980469h-60.996094c0 4.558593 0 141.132812 0 134.984375 0 12.011718-4.6875 23.320312-13.179687 31.8125l-61.253906 61.253906-21.164063-21.164062c3.082032-3.082032 72.324219-72.324219 68.003906-68l-42.296874-42.296876-88.191407 87.890626c-14.574219 14.574218-21.894531 33.582031-21.894531 52.792968 0 9.871094 0 126.765625 0 123.6875h119.984375v-53.796875l98.1875-97.1875.902344-.898437c14.097656-14.097656 21.898437-32.996094 21.898437-52.796875 0-4.453125 0-160.6875 0-156.28125zm0 0" fill="#fcd01e"/><path d="m241.472656 0h-89.992187v59.992188h30v-28.996094h29.996093v28.996094h149.980469v-59.992188zm0 0" fill="#fcd01e"/><path d="m151.480469 89.988281v59.996094h30v-30h29.996093v30h149.980469v-59.996094zm0 0" fill="#fcd01e"/><path d="m151.480469 179.980469v59.992187h30v-29.996094h29.996093v29.996094h149.980469v-59.992187zm0 0" fill="#fcd01e"/><path d="m23.296875 360.957031 98.1875 97.1875v53.796875h119.988281c0 3.078125 0-113.816406 0-123.6875 0-19.210937-7.320312-38.21875-21.898437-52.792968l-88.1875-87.890626-42.296875 42.296876c-4.324219-4.324219 64.921875 64.917968 68 68l-21.164063 21.164062-61.25-61.253906c-8.496093-8.492188-13.183593-19.800782-13.183593-31.8125 0 6.148437 0-130.425782 0-134.984375h-60.992188c0-4.40625 0 151.828125 0 156.28125 0 19.800781 7.800781 38.699219 21.894531 52.796875zm0 0" fill="#fcd01e"/></svg>
